<?xml version="1.0" encoding="UTF-8"?>
<svg width="36px" height="36px" viewBox="0 0 36 36" version="1.1" xmlns="http://www.w3.org/2000/svg" xmlns:xlink="http://www.w3.org/1999/xlink">
    <title>ic_circle_arrow</title>
    <g id="뉴뉴_프로그램" stroke="none" stroke-width="1" fill="none" fill-rule="evenodd">
        <g id="program_detail_final" transform="translate(-489.000000, -7322.000000)">
            <g id="프리미엄클래스-copy-10" transform="translate(250.000000, 7123.000000)">
                <g id="ic_circle_arrow" transform="translate(239.000000, 199.000000)">
                    <circle id="Oval" fill="#112233" cx="18" cy="18" r="18"></circle>
                    <g id="right-arrow-(4)" transform="translate(12.000000, 13.000000)" fill="#FFFFFF" fill-rule="nonzero">
                        <path d="M7.34475,0.137865885 C7.145,-0.0523841146 6.82825,-0.0448841146 6.638,0.155115885 C6.4475,0.355115885 6.4555,0.671615885 6.65525,0.862115885 L10.49075,4.49986589 L0.5,4.49986589 C0.224,4.49986589 0,4.72386589 0,4.99986589 C0,5.27586589 0.224,5.49986589 0.5,5.49986589 L10.47475,5.49986589 L6.65525,9.13786589 C6.45525,9.32836589 6.4475,9.64486589 6.638,9.84486589 C6.73625,9.94786589 6.868,9.99986589 7,9.99986589 C7.124,9.99986589 7.248,9.95411589 7.34475,9.86186589 L11.707,5.70686589 C11.896,5.51811589 12,5.26711589 12,4.99986589 C12,4.73261589 11.896,4.48161589 11.69825,4.28436589 L7.34475,0.137865885 Z" id="Path"></path>
                    </g>
                </g>
            </g>
        </g>
    </g>
</svg>