<?xml version="1.0" encoding="UTF-8"?>
<svg width="24px" height="24px" viewBox="0 0 24 24" version="1.1" xmlns="http://www.w3.org/2000/svg" xmlns:xlink="http://www.w3.org/1999/xlink">
    <title>ic_credit_card</title>
    <g id="Symbols" stroke="none" stroke-width="1" fill="none" fill-rule="evenodd">
        <g id="ic_credit_card" fill="#000000" fill-rule="nonzero">
            <g id="Shape">
                <path d="M23.0625,14.1307187 C23.5802812,14.1307187 24,13.711 24,13.1932188 L24,7.75 C24,5.68225 22.31775,4 20.25,4 L3.75,4 C1.68225,4 0,5.68225 0,7.75 L0,17.875 C0,19.94275 1.68225,21.625 3.75,21.625 L20.25,21.625 C22.31775,21.625 24,19.94275 24,17.875 C24,17.3572188 23.5802812,16.9375 23.0625,16.9375 C22.5447188,16.9375 22.125,17.3572188 22.125,17.875 C22.125,18.908875 21.283875,19.75 20.25,19.75 L3.75,19.75 C2.716125,19.75 1.875,18.908875 1.875,17.875 L1.875,10.8494687 L22.125,10.8494687 L22.125,13.1932188 C22.125,13.711 22.5447188,14.1307187 23.0625,14.1307187 Z M1.875,8.97446875 L1.875,7.75 C1.875,6.716125 2.716125,5.875 3.75,5.875 L20.25,5.875 C21.283875,5.875 22.125,6.716125 22.125,7.75 L22.125,8.97446875 L1.875,8.97446875 Z"></path>
            </g>
        </g>
    </g>
</svg>