<?xml version="1.0" encoding="UTF-8"?>
<svg width="24px" height="24px" viewBox="0 0 24 24" version="1.1" xmlns="http://www.w3.org/2000/svg" xmlns:xlink="http://www.w3.org/1999/xlink">
    <title>ic_profile</title>
    <g id="mas" stroke="none" stroke-width="1" fill="none" fill-rule="evenodd">
        <g id="ic_profile_on" fill="#000000" fill-rule="nonzero">
            <polygon id="Path" points="21.7187148 13.8749844 15.7491523 20.5215195 12.3802734 17.3147188 11.1952383 18.5596523 15.8456172 22.986293 22.9974219 15.0234531"></polygon>
            <path d="M15.6005234,12.6001016 C17.2671094,11.4523633 18.3619531,9.53144531 18.3619531,7.359375 C18.3619531,3.85282422 15.5091289,1 12.0025781,1 C8.49602734,1 5.64320313,3.85282422 5.64320313,7.359375 C5.64320313,9.53135938 6.73800391,11.4521914 8.40441797,12.5999727 C6.84851953,13.1368242 5.42247266,14.0237422 4.224375,15.2218398 C2.14679297,17.2994648 1.00257813,20.0617969 1.00257813,23 L2.72132813,23 C2.72132813,17.882293 6.88487109,13.71875 12.0025781,13.71875 C14.1721133,13.71875 16.1694297,14.4678672 17.7514961,15.7198906 L18.9054648,14.435082 C17.9095781,13.629332 16.793207,13.0119141 15.6005234,12.6001016 Z M12.0025781,12 C9.44374609,12 7.36195313,9.91820703 7.36195313,7.359375 C7.36195313,4.80054297 9.44374609,2.71875 12.0025781,2.71875 C14.5614102,2.71875 16.6432031,4.80054297 16.6432031,7.359375 C16.6432031,9.91820703 14.5614102,12 12.0025781,12 Z" id="Shape"></path>
        </g>
    </g>
</svg>