<?xml version="1.0" encoding="UTF-8"?>
<svg width="32px" height="32px" viewBox="0 0 32 32" version="1.1" xmlns="http://www.w3.org/2000/svg" xmlns:xlink="http://www.w3.org/1999/xlink">
    <title>ic_select_biceps</title>
    <g id="Symbols" stroke="none" stroke-width="1" fill="none" fill-rule="evenodd">
        <g id="ic_select_biceps" fill="#000000" fill-rule="nonzero">
            <path d="M26.8003905,1.4255625 C26.3055155,0.54625 25.3616405,0 24.3370155,0 L16.0575155,0 C14.506703,0 13.2450155,1.2616875 13.2450155,2.8125 L13.2450155,6.5625 C13.2450155,8.1133125 14.506703,9.375 16.0575155,9.375 L21.6825155,9.375 C22.199453,9.375 22.6200155,9.7955625 22.6200155,10.3125 L22.6200155,17.6770625 C19.916828,16.9380625 17.067328,16.84675 14.3281405,17.4039375 C12.241078,15.406875 9.28514048,14.5944375 6.33332798,15.3325 C3.38195298,16.0704375 0.932515482,18.478875 0.231452982,21.476625 C-0.371422018,24.05525 0.216327982,26.7113125 1.84420298,28.7636875 C3.47539048,30.820375 5.89957798,32 8.49501548,32 C20.733453,32 29.205203,27.349625 31.4767655,26.2135625 C31.7943905,26.05475 31.9950155,25.730125 31.9950155,25.375 L31.9950155,21.308 C31.9950155,14.3385 30.198703,7.46325 26.8003905,1.4255625 Z M30.120078,24.7973125 C27.074328,26.3314375 19.3641405,30.125 8.49501548,30.125 C6.47539048,30.125 4.58670298,29.204125 3.31314048,27.5984375 C2.04314048,25.9971875 1.58532798,23.9214375 2.05720298,21.9034375 C2.58732798,19.6360625 4.48857798,17.726375 6.78807798,17.151375 C8.67607798,16.67925 10.5688905,17.002125 12.097328,18.0109375 C11.366328,18.262125 10.649078,18.56225 9.95076548,18.911375 C9.48764048,19.1429375 9.29995298,19.7060625 9.53151548,20.1691875 C9.76301548,20.63225 10.3261405,20.82 10.7892655,20.5884375 C15.242578,18.3618125 20.559828,18.36175 25.0132655,20.5884375 C25.4771405,20.8204375 26.0398905,20.6314375 26.2710155,20.1691875 C26.502578,19.7060625 26.3148905,19.1429375 25.8517655,18.911375 C25.406828,18.688875 24.9540155,18.4866875 24.4950155,18.3039375 L24.4950155,10.3125 C24.4950155,8.7616875 23.233328,7.5 21.6825155,7.5 L20.7450155,7.5 L20.7450155,4.6875 C20.7450155,4.16975 20.3252655,3.75 19.8075155,3.75 L17.9325155,3.75 C17.4147655,3.75 16.9950155,4.16975 16.9950155,4.6875 C16.9950155,5.20525 17.4147655,5.625 17.9325155,5.625 L18.8700155,5.625 L18.8700155,7.5 L16.0575155,7.5 C15.540578,7.5 15.1200155,7.0794375 15.1200155,6.5625 L15.1200155,2.8125 C15.1200155,2.2955625 15.540578,1.875 16.0575155,1.875 L24.337078,1.875 C24.6853905,1.875 25.003203,2.0551875 25.1665155,2.3451875 C28.407203,8.10275 30.120078,14.6599375 30.120078,21.308 L30.120078,24.7973125 L30.120078,24.7973125 Z" id="Shape"></path>
        </g>
    </g>
</svg>