<svg width="20" height="20" viewBox="0 0 20 20" xmlns="http://www.w3.org/2000/svg" xmlns:xlink="http://www.w3.org/1999/xlink">
    <defs>
        <path id="a" d="M0 0h20v19.929H0z"/>
        <path id="c" d="M0 0h20v.5H0z"/>
        <path id="e" d="M0 20h20V0H0z"/>
    </defs>
    <g fill="none" fill-rule="evenodd">
        <mask id="b" fill="#fff">
            <use xlink:href="#a"/>
        </mask>
        <path d="M5.014 3.504a1.49 1.49 0 0 0-1.49 1.445c-.017.809.665 1.498 1.478 1.496A1.492 1.492 0 0 0 6.475 4.98a1.49 1.49 0 0 0-1.46-1.476zm11.462 1.47c0-.797-.667-1.464-1.467-1.47a1.49 1.49 0 0 0-1.484 1.452 1.49 1.49 0 0 0 1.487 1.49 1.49 1.49 0 0 0 1.464-1.473zm-8.8-.897h4.662v-2.89H7.676v2.89zm5.865-1.338c.115-.05.207-.089.297-.131 1.396-.662 3.074-.012 3.63 1.406a2.636 2.636 0 0 1-1.675 3.47c-1.456.459-3-.402-3.354-1.894-.063-.264-.166-.324-.413-.322-1.328.01-2.656.013-3.984 0-.287-.004-.417.05-.496.368C7.18 7.118 5.606 7.954 4.16 7.47a2.64 2.64 0 0 1-1.624-3.465c.554-1.4 2.227-2.056 3.6-1.41.1.047.203.092.32.145V1.19H1.204v17.542h17.597V1.184h-5.26v1.555zM0 19.533V0h20v19.533c-.19.308-.464.396-.823.396-6.118-.009-12.236-.009-18.354 0-.358 0-.634-.086-.823-.396z" fill="#000" mask="url(#b)"/>
        <g transform="translate(0 19.533)">
            <mask id="d" fill="#fff">
                <use xlink:href="#c"/>
            </mask>
            <path d="M0 0c.189.331.465.424.823.423C6.94.415 13.059.415 19.177.423 19.536.425 19.811.33 20 0v.5H0V0z" fill="#FFF" mask="url(#d)"/>
        </g>
        <mask id="f" fill="#fff">
            <use xlink:href="#e"/>
        </mask>
        <path d="M5.012 16.412a1.49 1.49 0 0 0 1.463-1.474 1.49 1.49 0 0 0-1.47-1.467 1.488 1.488 0 0 0-1.482 1.493 1.49 1.49 0 0 0 1.489 1.448m-2.66-1.474c0-1.434 1.191-2.626 2.63-2.635 1.455-.01 2.667 1.192 2.665 2.641-.002 1.449-1.218 2.649-2.67 2.636-1.44-.013-2.627-1.208-2.626-2.642M15.019 16.412a1.489 1.489 0 0 0 1.457-1.479 1.489 1.489 0 0 0-1.512-1.462c-.801.023-1.456.704-1.44 1.497a1.492 1.492 0 0 0 1.495 1.444m2.63-1.466c-.003 1.449-1.219 2.648-2.672 2.634-1.439-.014-2.627-1.21-2.624-2.643.002-1.45 1.218-2.648 2.672-2.634 1.44.013 2.626 1.208 2.624 2.643M10.585 10.547c0 .552.008 1.031-.002 1.51-.008.423-.24.686-.58.688-.342.002-.578-.261-.586-.683-.01-.488-.002-.977-.002-1.515-.499 0-.95.01-1.4-.005-.176-.006-.413-.011-.511-.118-.138-.15-.267-.416-.226-.592.041-.174.28-.389.464-.425.363-.07.75-.032 1.126-.037.165-.003.33 0 .547 0 0-.535-.009-1.023.003-1.511.01-.396.21-.617.54-.638.37-.023.61.205.623.63.014.49.003.978.003 1.518.498 0 .949-.01 1.399.005.176.006.413.01.511.117.139.15.268.415.227.591-.04.174-.279.39-.462.426-.364.071-.75.033-1.126.039-.165.002-.33 0-.548 0" fill="#000" mask="url(#f)"/>
    </g>
</svg>
