<?xml version="1.0" encoding="UTF-8"?>
<svg width="32px" height="32px" viewBox="0 0 32 32" version="1.1" xmlns="http://www.w3.org/2000/svg" xmlns:xlink="http://www.w3.org/1999/xlink">
    <title>ic_select_pain</title>
    <g id="Symbols" stroke="none" stroke-width="1" fill="none" fill-rule="evenodd">
        <g id="ic_select_pain" fill="#000000" fill-rule="nonzero">
            <path d="M26.5162039,16.5367216 C28.7664941,14.8057098 28.982902,11.487498 26.9728627,9.47745882 L17.4472784,0 L3.88235294,0 L3.88235294,0.941176471 C3.88235294,7.13882353 2,11.3918745 2,19.7647059 C2,28.2487843 3.87777255,31.4187922 3.9577098,31.5496157 L4.23297255,32 L16.8975686,32 C17.5142902,30.3166118 18,28.3132235 18,25.4117647 C18,24.4525804 17.9078902,23.497349 17.7135059,22.4663843 C17.8298353,22.3880157 16.5323294,23.2619922 26.5162039,16.5367216 L26.5162039,16.5367216 Z M3.89069804,20.7059451 C3.74192941,12.2714353 5.57540392,8.06619608 5.75127843,1.88235294 L16.6703686,1.88235294 L21.8592627,7.04501961 L19.5836235,9.32072157 L15.7535373,6.09838431 C15.5723922,7.13813333 15.2988235,9.6038902 14.5764392,11.9594039 C14.0028235,13.829898 14.0855843,15.4939608 14.3552627,16.9412392 L14.2352941,16.9412392 C12.6988549,16.9412392 11.4151529,18.172549 11.3737412,19.6860863 C11.3640784,20.0393412 11.4193569,20.3834353 11.5331137,20.7059451 L3.89069804,20.7059451 L3.89069804,20.7059451 Z M21.1014902,13.0576941 C21.1366902,13.0871843 21.1353725,13.1417098 21.097098,13.1689412 L16.2164078,16.6551843 C15.9765333,15.405302 15.9061961,14.0435451 16.3760941,12.5111843 C16.6349804,11.6670118 16.8683294,10.7153569 17.0733804,9.66864314 L21.1014902,13.0576941 Z M4.11156078,24.4705882 C4.0505098,23.8905725 3.99893333,23.2636235 3.96021961,22.5882353 L15.8193569,22.5882353 C15.9523765,23.2469961 16.0384,23.8659137 16.0824471,24.4705882 L4.11156078,24.4705882 Z M15.5445333,30.1176471 L5.3542902,30.1176471 C5.10663529,29.5225098 4.69088627,28.3196235 4.36429804,26.3529412 L16.0959373,26.3529412 C16.0165647,28.0826353 15.7352784,29.398902 15.5445333,30.1176471 Z M16.9578667,20.7058824 L14.1961412,20.7058824 C13.6688314,20.7058824 13.2407216,20.2725647 13.2553412,19.7376 C13.2691451,19.2335686 13.7088,18.8235294 14.2352941,18.8235294 L16.4192627,18.8235294 L22.1911843,14.7007373 C23.228549,13.9597176 23.2904784,12.4384 22.3128471,11.6169412 L21.0292706,10.5370353 L23.1936,8.37270588 L25.6434824,10.8102275 C26.8407843,12.0075922 26.7208784,13.983498 25.3902431,15.0278275 L16.9578667,20.7058824 Z" id="XMLID_124_"></path>
            <polygon id="XMLID_151_" points="22.3144157 26.9081725 21.7163922 25.1141647 19.9306039 25.7093647 21.2149961 29.5624157 23.097349 28.6212392 23.6953098 30.4152471 25.481098 29.8200471 24.1967686 25.9669961"></polygon>
            <polygon id="XMLID_152_" points="26.0823843 20.2058039 25.4168471 22.2023529 23.7254275 21.3566118 22.8835765 23.0401882 26.5162667 24.8564706 27.1817412 22.8599843 28.8732235 23.7057255 29.7150118 22.022149"></polygon>
        </g>
    </g>
</svg>