<?xml version="1.0" encoding="UTF-8"?>
<svg width="32px" height="32px" viewBox="0 0 32 32" version="1.1" xmlns="http://www.w3.org/2000/svg" xmlns:xlink="http://www.w3.org/1999/xlink">
    <title>ic_select_diet</title>
    <g id="Symbols" stroke="none" stroke-width="1" fill="none" fill-rule="evenodd">
        <g id="ic_select_diet" fill="#000000" fill-rule="nonzero">
            <g id="diet" transform="translate(0.000910, 0.000000)">
                <path d="M26.9992325,14.0005117 L25.6192717,14.0005117 C25.2812813,12.7405475 24.7172973,11.5245821 23.8693214,10.4266133 C21.2553957,7.0567091 17.7254961,8.02268164 15.617556,8.59866527 C15.2475665,8.69866242 14.9075762,8.78665992 14.599585,8.8506581 C14.0735999,7.49069676 13.3916193,4.23878921 17.4995025,1.86685664 C17.9774889,1.59086449 18.1414843,0.978881885 17.8654921,0.500895473 C17.5875,0.0229090614 16.9755174,-0.14308622 16.4995309,0.134905878 C14.8575776,1.08287893 13.7956078,2.19284737 13.1336266,3.34081474 C12.9416321,3.01482401 12.7296381,2.69683305 12.4736454,2.40084146 C11.1356834,0.85488541 9.19173869,0.000909686822 6.99980101,0.000909686822 C6.4478167,0.000909686822 5.99982943,0.448896951 5.99982943,1.00088126 C5.99982943,3.19481889 6.85180521,5.13676368 8.39976121,6.47472565 C9.5397288,7.46069762 10.9296893,7.99268249 12.31165,7.99868232 C12.345649,8.20867635 12.3856479,8.41267055 12.4336465,8.61266487 C12.415647,8.60666504 12.4016474,8.60266515 12.381648,8.59866527 C10.271708,8.02268164 6.74380828,7.05470916 4.12788265,10.4286132 C1.50995707,13.8165169 1.34396179,18.2643905 3.53989937,22.0002843 L0.999971572,22.0002843 C0.447987264,22.0002843 -1.77630634e-15,22.4482715 -1.77630634e-15,23.0002558 L-1.77630634e-15,31.0000284 C-1.77630634e-15,31.5520127 0.447987264,32 0.999971572,32 L26.9992325,32 C29.7551541,32 31.9990903,29.7580637 31.9990903,27.0001421 L31.9990903,19.0003696 C31.9990903,16.242448 29.7551541,14.0005117 26.9992325,14.0005117 Z M9.70772402,4.96076869 C8.8677479,4.23478932 8.31376365,3.24281752 8.09976974,2.10084999 C9.24173727,2.31484391 10.2337091,2.86882816 10.9596884,3.71080422 C11.5396719,4.37678529 11.8936619,5.18476232 11.9796594,5.97873975 C11.1836821,5.89474213 10.375705,5.5407522 9.70772402,4.96076869 Z M5.70983768,11.6525784 C7.50378668,9.3326444 9.81372101,9.96662638 11.853663,10.5266105 C12.4996447,10.7046054 13.049629,10.790603 13.5876137,10.824602 C13.71761,10.8846003 13.8536062,10.9325989 13.9976021,10.9325989 C14.139598,10.9325989 14.281594,10.8866002 14.4175901,10.822602 C14.9535749,10.7866031 15.5015593,10.7006055 16.145541,10.5246105 C18.187483,9.96662638 20.4974173,9.3326444 22.2893663,11.6485786 C25.1452852,15.3444735 24.0013177,19.4403571 22.0593729,21.9982843 L5.94183108,21.9982843 C3.99788635,19.4443569 2.85391887,15.3464734 5.70983768,11.6525784 Z M29.9991472,27.0001421 C29.9991472,28.6540951 28.6531854,30.0000569 26.9992325,30.0000569 L25.9992609,30.0000569 L25.9992609,29.0000853 C25.9992609,28.448101 25.5512736,28.0001137 24.9992893,28.0001137 C24.447305,28.0001137 23.9993177,28.448101 23.9993177,29.0000853 L23.9993177,30.0000569 L21.9993746,30.0000569 L21.9993746,27.0001421 C21.9993746,26.4481578 21.5513873,26.0001706 20.999403,26.0001706 C20.4474187,26.0001706 19.9994314,26.4481578 19.9994314,27.0001421 L19.9994314,30.0000569 L17.9994883,30.0000569 L17.9994883,29.0000853 C17.9994883,28.448101 17.551501,28.0001137 16.9995167,28.0001137 C16.4475324,28.0001137 15.9995452,28.448101 15.9995452,29.0000853 L15.9995452,30.0000569 L13.999602,30.0000569 L13.999602,29.0000853 C13.999602,28.448101 13.5516147,28.0001137 12.9996304,28.0001137 C12.4476461,28.0001137 11.9996589,28.448101 11.9996589,29.0000853 L11.9996589,30.0000569 L9.99971572,30.0000569 L9.99971572,27.0001421 C9.99971572,26.4481578 9.55172846,26.0001706 8.99974415,26.0001706 C8.44775984,26.0001706 7.99977258,26.4481578 7.99977258,27.0001421 L7.99977258,30.0000569 L5.99982943,30.0000569 L5.99982943,29.0000853 C5.99982943,28.448101 5.55184217,28.0001137 4.99985786,28.0001137 C4.44787355,28.0001137 3.99988629,28.448101 3.99988629,29.0000853 L3.99988629,30.0000569 L1.99994314,30.0000569 L1.99994314,24.0002274 L4.99385803,24.0002274 L23.0073459,24.0002274 L26.9992325,24.0002274 C28.1292003,24.0002274 29.161171,23.6102385 29.9991472,22.9742566 L29.9991472,27.0001421 Z M26.9992325,22.0002843 L24.4593047,22.0002843 C25.573273,20.1063381 26.0472595,18.0323971 25.9332628,16.0004548 L26.9992325,16.0004548 C28.6531854,16.0004548 29.9991472,17.3464166 29.9991472,19.0003696 C29.9991472,20.6543225 28.6531854,22.0002843 26.9992325,22.0002843 Z" id="Shape"></path>
            </g>
        </g>
    </g>
</svg>