<?xml version="1.0" encoding="UTF-8"?>
<svg width="32px" height="32px" viewBox="0 0 32 32" version="1.1" xmlns="http://www.w3.org/2000/svg" xmlns:xlink="http://www.w3.org/1999/xlink">
    <title>ic_survey</title>
    <g id="키핏셀렉트" stroke="none" stroke-width="1" fill="none" fill-rule="evenodd">
        <g id="keepfit_select_C" transform="translate(-270.000000, -682.000000)" fill="#FFFFFF" fill-rule="nonzero">
            <g id="ic_survey" transform="translate(270.000000, 682.000000)">
                <path d="M7.5625,15.0625 C11.698,15.0625 15.0625,11.698 15.0625,7.5625 C15.0625,3.3925 11.698,0 7.5625,0 C3.42475,0 0,3.408625 0,7.5625 C0,11.698 3.3925,15.0625 7.5625,15.0625 Z M7.5625,1.875 C10.664125,1.875 13.1875,4.426375 13.1875,7.5625 C13.1875,10.664125 10.664125,13.1875 7.5625,13.1875 C4.426375,13.1875 1.875,10.664125 1.875,7.5625 C1.875,4.4795625 4.4795625,1.875 7.5625,1.875 Z" id="Shape"></path>
                <path d="M7.5625,11.3125 C9.1471875,11.3125 10.568,10.308125 11.098,8.8133125 C11.2710625,8.3253125 11.0156875,7.7894375 10.5276875,7.6164375 C10.03975,7.4434375 9.503875,7.69875 9.3308125,8.18675 C9.0655,8.934875 8.3549375,9.4375 7.5625,9.4375 C6.7700625,9.4375 6.0595,8.934875 5.79425,8.1866875 C5.6211875,7.6986875 5.0853125,7.4434375 4.597375,7.616375 C4.109375,7.789375 3.854,8.32525 4.0270625,8.81325 C4.557,10.308125 5.9778125,11.3125 7.5625,11.3125 L7.5625,11.3125 Z" id="Path"></path>
                <path d="M7.5625,32 C11.698,32 15.0625,28.6075 15.0625,24.4375 C15.0625,20.302 11.698,16.9375 7.5625,16.9375 C3.3925,16.9375 0,20.302 0,24.4375 C0,28.57525 3.408625,32 7.5625,32 Z M7.5625,18.8125 C10.664125,18.8125 13.1875,21.335875 13.1875,24.4375 C13.1875,27.573625 10.664125,30.125 7.5625,30.125 C4.4795625,30.125 1.875,27.5204375 1.875,24.4375 C1.875,21.335875 4.426375,18.8125 7.5625,18.8125 Z" id="Shape"></path>
                <path d="M4.5973125,28.133625 C5.0853125,28.30675 5.6211875,28.051375 5.7941875,27.5633125 C6.0595,26.815125 6.7700625,26.3125 7.5625,26.3125 C8.3549375,26.3125 9.0655,26.815125 9.33075,27.5633125 C9.5035,28.050625 10.038875,28.306875 10.527625,28.133625 C11.015625,27.960625 11.271,27.42475 11.0979375,26.93675 C10.568,25.441875 9.1471875,24.4375 7.5625,24.4375 C5.9778125,24.4375 4.557,25.441875 4.027,26.9366875 C3.854,27.4246875 4.109375,27.960625 4.5973125,28.133625 L4.5973125,28.133625 Z" id="Path"></path>
                <circle id="Oval" cx="5.6875" cy="4.75" r="1"></circle>
                <circle id="Oval" cx="9.4375" cy="4.75" r="1"></circle>
                <circle id="Oval" cx="9.4375" cy="21.625" r="1"></circle>
                <circle id="Oval" cx="5.6875" cy="21.625" r="1"></circle>
                <path d="M31.0625,16.9375 L16,16.9375 C15.48225,16.9375 15.0625,17.35725 15.0625,17.875 C15.0625,18.39275 15.48225,18.8125 16,18.8125 C17.5508125,18.8125 18.8125,20.0741875 18.8125,21.625 L18.8125,29.125 C18.8125,29.64275 19.23225,30.0625 19.75,30.0625 L31.0625,30.0625 C31.58025,30.0625 32,29.64275 32,29.125 L32,17.875 C32,17.35725 31.58025,16.9375 31.0625,16.9375 Z M30.125,28.1875 L20.6875,28.1875 L20.6875,21.625 C20.6875,20.5706875 20.3375,19.5964375 19.74775,18.8125 L30.125,18.8125 L30.125,28.1875 Z" id="Shape"></path>
                <path d="M31.0625,1.9375 L19.75,1.9375 C19.23225,1.9375 18.8125,2.35725 18.8125,2.875 L18.8125,10.375 C18.8125,11.9258125 17.5508125,13.1875 16,13.1875 C15.48225,13.1875 15.0625,13.60725 15.0625,14.125 C15.0625,14.64275 15.48225,15.0625 16,15.0625 L31.0625,15.0625 C31.58025,15.0625 32,14.64275 32,14.125 L32,2.875 C32,2.35725 31.58025,1.9375 31.0625,1.9375 Z M30.125,13.1875 L19.74775,13.1875 C20.3375,12.4035625 20.6875,11.4293125 20.6875,10.375 L20.6875,3.8125 L30.125,3.8125 L30.125,13.1875 Z" id="Shape"></path>
                <path d="M23.774625,10.569125 C24.1406875,10.93525 24.7343125,10.9353125 25.1004375,10.569125 L27.9129375,7.756625 C28.2790625,7.3905 28.2790625,6.7969375 27.9129375,6.4308125 C27.546875,6.0646875 26.95325,6.0646875 26.587125,6.4308125 L24.4375,8.5804375 L23.694125,7.837125 C23.3280625,7.471 22.7344375,7.471 22.3683125,7.837125 C22.0021875,8.20325 22.0021875,8.7968125 22.3683125,9.1629375 L23.774625,10.569125 Z" id="Path"></path>
                <path d="M23.38625,25.48875 C23.7523125,25.854875 24.3459375,25.8549375 24.7120625,25.48875 L25.375,24.8258125 L26.0379375,25.48875 C26.404,25.854875 26.997625,25.8549375 27.36375,25.48875 C27.729875,25.122625 27.729875,24.5290625 27.36375,24.1629375 L26.7008125,23.5 L27.36375,22.8370625 C27.729875,22.4709375 27.729875,21.877375 27.36375,21.51125 C26.9976875,21.145125 26.4040625,21.145125 26.0379375,21.51125 L25.375,22.1741875 L24.7120625,21.51125 C24.346,21.145125 23.752375,21.145125 23.38625,21.51125 C23.020125,21.877375 23.020125,22.4709375 23.38625,22.8370625 L24.0491875,23.5 L23.38625,24.1629375 C23.020125,24.5290625 23.020125,25.122625 23.38625,25.48875 L23.38625,25.48875 Z" id="Path"></path>
            </g>
        </g>
    </g>
</svg>