<?xml version="1.0" encoding="UTF-8"?>
<svg width="32px" height="32px" viewBox="0 0 32 32" version="1.1" xmlns="http://www.w3.org/2000/svg" xmlns:xlink="http://www.w3.org/1999/xlink">
    <title>ic_select_revision</title>
    <g id="Symbols" stroke="none" stroke-width="1" fill="none" fill-rule="evenodd">
        <g id="ic_select_revision" fill="#000000" fill-rule="nonzero" stroke="#000000" stroke-width="0.5">
            <path d="M3.63452174,32 C3.32326587,32 3.05326077,31.7674956 3.01576006,31.4499896 L2.15074373,24.3011046 C1.8632383,21.9235598 1.98699064,19.5335146 2.52200074,17.1972205 C2.84575685,15.7734436 3.01075997,14.3134161 3.01075997,12.8596386 L3.09951164,11.3671104 C3.20826369,9.57332657 4.37953581,8.04829778 6.08331798,7.48078707 L9.39963059,6.37451618 C10.3271481,6.06451033 11.0671621,5.3269964 11.3759179,4.39822887 L12.0321803,2.42694165 C12.1434324,2.09943546 12.4984391,1.92693221 12.8234452,2.03193419 C13.1509514,2.14068624 13.3272047,2.49569294 13.2184527,2.82319913 L12.5621903,4.79323632 C12.1271821,6.09326087 11.0934126,7.12703039 9.79463805,7.55953855 L6.47832543,8.66580944 C5.26080245,9.07206711 4.42453666,10.1620877 4.34703519,11.4433619 L4.25953354,12.8983894 C4.26078357,14.4071678 4.08578026,15.9596972 3.74077375,17.4759758 C3.23951428,19.6722672 3.12201207,21.9173096 3.39201716,24.1523518 L4.25578347,31.3012368 C4.29703425,31.6437433 4.05327965,31.9549992 3.70952316,31.9975 C3.68577271,31.99875 3.65952221,32 3.63452174,32 Z" id="Path"></path>
            <path d="M27.8674793,32 C27.8412288,32 27.8162283,31.99875 27.7912278,31.9962499 C27.4487214,31.9549992 27.2037167,31.6437433 27.2449675,31.2999868 L28.1087338,24.1511018 C28.3787389,21.9160596 28.2612367,19.6710172 27.7599772,17.4759758 C27.4149707,15.9596972 27.2399674,14.4071678 27.2399674,12.8608886 L27.1537158,11.4433619 C27.0749643,10.1620877 26.2399485,9.07206711 25.0224256,8.66580944 L21.7061129,7.55953855 C20.4073384,7.12703039 19.3735689,6.09326087 18.9385607,4.79323632 L18.2822983,2.8219491 C18.1735462,2.49444292 18.3510496,2.14068624 18.6773058,2.03068417 C19.007312,1.92568218 19.3585686,2.09818544 19.4685707,2.42569162 L20.1260831,4.39822887 C20.4348389,5.3269964 21.1748529,6.06451033 22.1023704,6.37451618 L25.418683,7.48078707 C27.1212152,8.04829778 28.2937373,9.57332657 28.4024894,11.3671104 L28.489991,12.8221379 C28.491241,14.3134161 28.6562442,15.7734436 28.9800003,17.1972205 C29.5150104,19.5322646 29.6387627,21.9223097 29.3512573,24.3011046 L28.487491,31.4499896 C28.4487402,31.7674956 28.1787351,32 27.8674793,32 L27.8674793,32 Z" id="Path"></path>
            <path d="M10.1258943,14.4996696 C9.96589128,14.4996696 9.80588826,14.4384184 9.68338595,14.3171661 C9.43963135,14.0734115 9.43963135,13.6771541 9.68338595,13.4333995 C10.372149,12.7446364 10.7509061,11.8308692 10.7509061,10.8571008 L10.7509061,10.124587 C10.7509061,9.77958047 11.0309114,9.49957518 11.3759179,9.49957518 C11.7209244,9.49957518 12.0009297,9.77958047 12.0009297,10.124587 L12.0009297,10.8571008 C12.0009297,12.1646255 11.4921701,13.3933987 10.5684027,14.3171661 C10.4459003,14.4384184 10.2858973,14.4996696 10.1258943,14.4996696 Z" id="Path"></path>
            <path d="M21.3761067,14.4996696 C21.2161037,14.4996696 21.0561007,14.4384184 20.9335984,14.3171661 C20.0098309,13.3933987 19.5010713,12.1646255 19.5010713,10.8571008 L19.5010713,10.124587 C19.5010713,9.77958047 19.7810766,9.49957518 20.1260831,9.49957518 C20.4710896,9.49957518 20.7510949,9.77958047 20.7510949,10.124587 L20.7510949,10.8571008 C20.7510949,11.8308692 21.1298521,12.7446364 21.8186151,13.4333995 C22.0623697,13.6771541 22.0623697,14.0734115 21.8186151,14.3171661 C21.6961128,14.4384184 21.5361097,14.4996696 21.3761067,14.4996696 Z" id="Path"></path>
            <path d="M15.7510005,29.4999528 C15.405994,29.4999528 15.1259887,29.2199475 15.1259887,28.874941 L15.1259887,12.6246342 C15.1259887,12.2796277 15.405994,11.9996224 15.7510005,11.9996224 C16.096007,11.9996224 16.3760123,12.2796277 16.3760123,12.6246342 L16.3760123,28.874941 C16.3760123,29.2199475 16.096007,29.4999528 15.7510005,29.4999528 Z" id="Path"></path>
            <path d="M23.8761539,32 C23.5948986,32 23.3398938,31.8112464 23.2698925,31.5262411 L22.8573847,29.8762099 C22.2861239,27.5849166 22.2861239,25.1636209 22.8573847,22.8723277 C23.1186396,21.829808 23.2511421,20.7535377 23.2511421,19.6747673 L23.2511421,16.374705 C23.2511421,16.0296985 23.5311474,15.7496932 23.8761539,15.7496932 C24.2211604,15.7496932 24.5011657,16.0296985 24.5011657,16.374705 L24.5011657,19.6747673 C24.5011657,20.8572896 24.356163,22.0348119 24.0699076,23.1773334 C23.5473977,25.2698729 23.5473977,27.4811647 24.0699076,29.5749542 L24.4824154,31.2249854 C24.5649169,31.5599917 24.3624131,31.8987481 24.0274068,31.9824997 C23.9774058,31.9937499 23.9261549,32 23.8761539,32 L23.8761539,32 Z" id="Path"></path>
            <path d="M7.6258471,32 C7.57584616,32 7.52459519,31.9937499 7.47459424,31.9812496 C7.1383379,31.8974981 6.93583407,31.5587417 7.01958565,31.2237353 L7.43209344,29.5737042 C7.95460331,27.4811647 7.95460331,25.2686229 7.43209344,23.1760834 C7.14583804,22.0348119 7.0008353,20.8560396 7.0008353,19.6747673 L7.0008353,16.374705 C7.0008353,16.0296985 7.28084059,15.7496932 7.6258471,15.7496932 C7.97085361,15.7496932 8.2508589,16.0296985 8.2508589,16.374705 L8.2508589,19.6747673 C8.2508589,20.7547877 8.3833614,21.831058 8.64461633,22.8735777 C9.21587712,25.1648709 9.21587712,27.5874167 8.64461633,29.8774599 L8.23210855,31.5274911 C8.16210722,31.8112464 7.90710241,32 7.6258471,32 L7.6258471,32 Z" id="Path"></path>
        </g>
    </g>
</svg>