<?xml version="1.0" encoding="UTF-8"?>
<svg width="32px" height="32px" viewBox="0 0 32 32" version="1.1" xmlns="http://www.w3.org/2000/svg" xmlns:xlink="http://www.w3.org/1999/xlink">
    <title>ic_select_healthy</title>
    <g id="Symbols" stroke="none" stroke-width="1" fill="none" fill-rule="evenodd">
        <g id="ic_select_healthy" fill="#000000" fill-rule="nonzero">
            <path d="M16,25.1770625 L9.072125,18.2491875 C6.979375,16.156375 6.979375,12.7511875 9.072125,10.658375 C10.0859375,9.6445625 11.4338125,9.08625 12.8675625,9.08625 C14.0075625,9.08625 15.0933125,9.43925 16.0000625,10.093625 C16.90675,9.4393125 17.9925,9.08625 19.1325625,9.08625 C20.56625,9.08625 21.9141875,9.644625 22.9279375,10.658375 C23.9416875,11.672125 24.5,13.0200625 24.5,14.45375 C24.5,15.8874375 23.9416875,17.235375 22.927875,18.2491875 L16,25.1770625 Z M12.8675,10.9611875 C11.934625,10.9611875 11.0575625,11.3245625 10.397875,11.9841875 C9.0361875,13.3459375 9.0361875,15.561625 10.397875,16.923375 L16,22.525375 L21.6020625,16.923375 C22.26175,16.2636875 22.625,15.3866875 22.625,14.45375 C22.625,13.520875 22.2616875,12.643875 21.6020625,11.9841875 C20.942375,11.3245 20.065375,10.9611875 19.1325,10.9611875 C18.199625,10.9611875 17.322625,11.3245 16.6629375,11.984125 L16,12.647125 L15.337125,11.9841875 C14.6774375,11.3245625 13.800375,10.9611875 12.8675,10.9611875 Z" id="Shape"></path>
            <polygon id="Path" points="15.0625 0 16.9375 0 16.9375 4.6875 15.0625 4.6875"></polygon>
            <polygon id="Path" points="15.0625 27.3125 16.9375 27.3125 16.9375 32 15.0625 32"></polygon>
            <polygon id="Path" transform="translate(9.171625, 4.173214) rotate(-30.000728) translate(-9.171625, -4.173214) " points="8.23414563 1.82951519 10.1091044 1.82951519 10.1091044 6.51691206 8.23414563 6.51691206"></polygon>
            <polygon id="Path" transform="translate(22.827531, 27.825857) rotate(-30.000728) translate(-22.827531, -27.825857) " points="21.8900519 25.4821588 23.7650106 25.4821588 23.7650106 30.1695557 21.8900519 30.1695557"></polygon>
            <polygon id="Path" transform="translate(4.173094, 9.171982) rotate(-59.999272) translate(-4.173094, -9.171982) " points="3.23561438 6.82828381 5.11057312 6.82828381 5.11057312 11.5156807 3.23561438 11.5156807"></polygon>
            <polygon id="Path" transform="translate(27.826125, 22.828839) rotate(-59.999272) translate(-27.826125, -22.828839) " points="26.8886456 20.4851402 28.7636044 20.4851402 28.7636044 25.1725371 26.8886456 25.1725371"></polygon>
            <polygon id="Path" points="0 15.0625 4.6875 15.0625 4.6875 16.9375 0 16.9375"></polygon>
            <polygon id="Path" points="27.3125 15.0625 32 15.0625 32 16.9375 27.3125 16.9375"></polygon>
            <polygon id="Path" transform="translate(4.173151, 22.827625) rotate(-30.000728) translate(-4.173151, -22.827625) " points="1.82945269 21.8901456 6.51684956 21.8901456 6.51684956 23.7651044 1.82945269 23.7651044"></polygon>
            <polygon id="Path" transform="translate(27.825920, 9.171781) rotate(-30.000728) translate(-27.825920, -9.171781) " points="25.4822213 8.23430188 30.1696182 8.23430188 30.1696182 10.1092606 25.4822213 10.1092606"></polygon>
            <polygon id="Path" transform="translate(9.171224, 27.826750) rotate(-59.999272) translate(-9.171224, -27.826750) " points="6.82752544 26.8892706 11.5149223 26.8892706 11.5149223 28.7642294 6.82752544 28.7642294"></polygon>
            <polygon id="Path" transform="translate(22.827955, 4.173844) rotate(-59.999272) translate(-22.827955, -4.173844) " points="20.4842568 3.23636438 25.1716537 3.23636438 25.1716537 5.11132312 20.4842568 5.11132312"></polygon>
        </g>
    </g>
</svg>