<?xml version="1.0" encoding="UTF-8"?>
<svg width="320px" height="244px" viewBox="0 0 320 244" version="1.1" xmlns="http://www.w3.org/2000/svg" xmlns:xlink="http://www.w3.org/1999/xlink">
    <title>ilst_children</title>
    <g id="스포츠강좌이용권" stroke="none" stroke-width="1" fill="none" fill-rule="evenodd">
        <g id="keepfit_voucher" transform="translate(-854.000000, -142.000000)" fill-rule="nonzero">
            <g id="masthead" transform="translate(0.000000, 100.000000)">
                <g id="ilst_children" transform="translate(854.000000, 42.000000)">
                    <g id="Group">
                        <path d="M87.301875,0.0109157134 C78.236875,0.0109157134 82.090625,-0.158459287 69.335625,0.837165713 C55.856875,1.88904071 43.49125,8.15404071 34.704375,18.0440407 C29.933125,23.4140407 22.520625,25.5865407 15.678125,23.3996657 L9.375,21.3852907 C9.375,21.3852907 6.155,88.8140407 25.611875,97.2952907 L150.020625,97.2952907 L150.020625,62.7146657 C150.020625,28.0802907 121.936875,0.0121657134 87.301875,0.0109157134 Z" id="Path" fill="#D77F4A"></path>
                        <path d="M55.265625,172.608416 L55.265625,172.589041 L36.230625,172.589041 C21.74875,172.589041 10.009375,184.329041 10.009375,198.810291 L10.009375,242.408416 L150.02125,242.408416 L150.02125,198.810291 C150.02125,184.328416 138.28125,172.589041 123.8,172.589041 L104.765,172.589041 L104.765,172.608416 L55.265625,172.608416 Z" id="Path" fill="#3C87D0"></path>
                        <path d="M55.174375,152.834041 L55.174375,172.608416 C55.174375,186.277166 66.255,197.357791 79.92375,197.357791 C93.5925,197.357791 104.673125,186.277166 104.673125,172.608416 C104.673125,165.677166 104.673125,159.530291 104.673125,152.834041 L55.174375,152.834041 Z" id="Path" fill="#FFB09E"></path>
                        <path d="M55.174375,172.608416 C55.174375,173.752791 55.25875,174.876541 55.40875,175.980291 C62.916875,179.355291 71.2575,181.236541 80.043125,181.236541 C88.73,181.236541 96.98125,179.397166 104.423125,176.093416 C104.58375,174.954041 104.671875,173.791541 104.671875,172.608416 C104.671875,165.677166 104.671875,159.529666 104.671875,152.834041 L55.174375,152.834041 L55.174375,172.608416 Z" id="Path" fill="#FFA78F"></path>
                        <path d="M50.85875,122.023416 L20.261875,122.023416 C9.071875,122.023416 0,112.952166 0,101.761541 C0,90.5709157 9.071875,81.4996657 20.261875,81.4996657 L50.85875,81.4996657 L50.85875,122.023416 Z" id="Path" fill="#FFB09E"></path>
                        <path d="M109.17125,81.4996657 L139.768125,81.4996657 C150.95875,81.4996657 160.03,90.5715407 160.03,101.761541 C160.03,112.952166 150.958125,122.023416 139.768125,122.023416 L109.17125,122.023416 L109.17125,81.4996657 Z" id="Path" fill="#FFA78F"></path>
                        <path d="M20.46125,90.5977907 L20.46125,112.924666 C20.46125,145.457791 47.136875,171.831541 80.04375,171.831541 C112.95,171.831541 139.62625,145.457791 139.62625,112.924666 L139.62625,90.5977907 C139.62625,58.0646657 112.950625,31.6909157 80.04375,31.6909157 C47.136875,31.6909157 20.46125,58.0646657 20.46125,90.5977907 Z" id="Path" fill="#FFCEBF"></path>
                        <path d="M45.154375,132.657166 L34.803125,132.657166 C31.703125,132.657166 29.190625,130.144666 29.190625,127.044666 C29.190625,123.944666 31.703125,121.432166 34.803125,121.432166 L45.155,121.432166 C48.255,121.432166 50.7675,123.944666 50.7675,127.044666 C50.7675,130.144666 48.255,132.657166 45.154375,132.657166 L45.154375,132.657166 Z" id="Path" fill="#FE8F83"></path>
                        <path d="M82.055,31.7327907 C79.78375,31.7971657 77.541875,31.9759157 75.34125,32.2852907 C104.238125,36.3490407 126.459375,60.9059157 126.459375,90.5977907 L126.459375,112.924666 C126.459375,142.616541 104.238125,167.173416 75.34125,171.237166 C77.541875,171.546541 79.78375,171.725916 82.055,171.789666 C114.029375,170.740291 139.62625,144.791541 139.62625,112.924666 L139.62625,90.5977907 C139.62625,58.7309157 114.029375,32.7821657 82.055,31.7327907 Z" id="Path" fill="#FFB09E"></path>
                        <path d="M89.79125,0.0734157134 L79.26375,0.0734157134 C77.55125,0.168415713 75.199375,0.379665713 69.33625,0.837165713 C56.303125,1.85529071 44.3125,7.74654071 35.59,17.0752907 L35.59,43.2496657 C35.59,64.3746657 52.715,81.4990407 73.839375,81.4990407 L150.020625,81.4990407 L150.020625,62.7140407 C150.020625,28.9140407 123.273125,1.37404071 89.79125,0.0734157134 Z" id="Path" fill="#D77F4A"></path>
                        <path d="M89.79125,0.0740407134 L79.26375,0.0740407134 C77.82125,0.154040713 75.916875,0.317165713 71.850625,0.640290713 C102.314375,4.91716571 125.7575,31.0721657 125.7575,62.7152907 L125.7575,81.5002907 L150.021875,81.5002907 L150.021875,62.7152907 C150.021875,28.9140407 123.273125,1.37404071 89.79125,0.0740407134 Z" id="Path" fill="#C86D36"></path>
                        <path d="M123.799375,172.589666 L104.764375,172.589666 L104.764375,172.609041 L103.865625,172.609041 C117.99625,173.010291 129.330625,184.583416 129.330625,198.811541 L129.330625,242.409666 L150.02125,242.409666 L150.02125,198.811541 C150.02125,184.329041 138.28125,172.589666 123.799375,172.589666 Z" id="Path" fill="#0078C8"></path>
                        <path d="M125.04375,132.657166 L114.691875,132.657166 C111.591875,132.657166 109.079375,130.144666 109.079375,127.044666 C109.079375,123.944666 111.591875,121.432166 114.691875,121.432166 L125.04375,121.432166 C128.14375,121.432166 130.65625,123.944666 130.65625,127.044666 C130.65625,130.144666 128.14375,132.657166 125.04375,132.657166 Z" id="Path" fill="#FE8F83"></path>
                        <path d="M79.92375,148.017166 C70.184375,148.017166 62.26125,140.094041 62.26125,130.355291 C62.26125,127.606541 64.489375,125.378416 67.238125,125.378416 C69.986875,125.378416 72.215,127.606541 72.215,130.355291 C72.215,134.605291 75.673125,138.064041 79.924375,138.064041 C84.174375,138.064041 87.633125,134.605916 87.633125,130.355291 C87.633125,127.606541 89.86125,125.378416 92.61,125.378416 C95.35875,125.378416 97.586875,127.606541 97.586875,130.355291 C97.585625,140.094041 89.6625,148.017166 79.92375,148.017166 L79.92375,148.017166 Z" id="Path" fill="#FFA799"></path>
                        <g transform="translate(45.790625, 95.707166)" fill="#5A5A5A" id="Path">
                            <path d="M63.28875,20.953125 C60.54,20.953125 58.311875,18.725 58.311875,15.97625 L58.311875,4.976875 C58.311875,2.228125 60.54,0 63.28875,0 C66.0375,0 68.265625,2.228125 68.265625,4.976875 L68.265625,15.97625 C68.265625,18.725 66.038125,20.953125 63.28875,20.953125 Z"></path>
                            <path d="M4.976875,20.953125 C2.228125,20.953125 -8.8817842e-15,18.725 -8.8817842e-15,15.97625 L-8.8817842e-15,4.976875 C-8.8817842e-15,2.228125 2.228125,0 4.976875,0 C7.725625,0 9.95375,2.228125 9.95375,4.976875 L9.95375,15.97625 C9.953125,18.725 7.725625,20.953125 4.976875,20.953125 Z"></path>
                        </g>
                    </g>
                    <g id="Group" transform="translate(140.865000, 16.827791)">
                        <path d="M53.084375,159.49375 L50.510625,159.49375 C36.535,159.49375 25.205625,170.823125 25.205625,184.79875 L25.205625,226.265625 L154.26,226.265625 L154.26,184.79875 C154.26,170.823125 142.930625,159.49375 128.955,159.49375 L53.084375,159.49375 Z" id="Path" fill="#F07281"></path>
                        <path d="M128.955625,159.49375 L108.23,159.49375 C122.205625,159.49375 133.535,170.823125 133.535,184.79875 L133.535,226.265625 L154.260625,226.265625 L154.260625,184.79875 C154.260625,170.8225 142.93125,159.49375 128.955625,159.49375 Z" id="Path" fill="#EB5569"></path>
                        <path d="M89.649375,186.145 C77.476875,186.145 67.60875,176.276875 67.60875,164.104375 L67.60875,111.0625 L111.69,111.0625 L111.69,164.10375 C111.689375,176.276875 101.821875,186.145 89.649375,186.145 Z" id="Path" fill="#FFB09E"></path>
                        <path d="M67.60875,160.965625 C74.32,163.99125 81.773125,165.69 89.631875,165.69 C97.504375,165.69 104.969375,163.985 111.69,160.95 L111.69,111.0625 L67.60875,111.0625 L67.60875,160.965625 Z" id="Path" fill="#FFA78F"></path>
                        <path d="M168.12,166.254375 L179.135,166.254375 L179.135,135.925 C179.135,118.211875 164.775625,103.8525 147.0625,103.8525 L136.0475,103.8525 L136.0475,134.181875 C136.0475,151.895 150.406875,166.254375 168.12,166.254375 Z" id="Path" fill="#5A5A5A"></path>
                        <path d="M147.0625,103.8525 L136.0475,103.8525 L136.0475,104.775 C150.071875,108.2025 160.481875,120.845 160.481875,135.925 L160.481875,165.331875 C162.930625,165.93 165.486875,166.254375 168.12,166.254375 L179.135,166.254375 L179.135,135.925 C179.135,118.21125 164.775625,103.8525 147.0625,103.8525 L147.0625,103.8525 Z" id="Path" fill="#444444"></path>
                        <path d="M11.015,166.254375 L0,166.254375 L0,135.925 C0,118.211875 14.359375,103.8525 32.0725,103.8525 L43.0875,103.8525 L43.0875,134.181875 C43.0875,151.895 28.728125,166.254375 11.015,166.254375 L11.015,166.254375 Z" id="Path" fill="#5A5A5A"></path>
                        <path d="M63.68625,111.0625 L36.368125,111.0625 C26.394375,111.0625 18.309375,102.9775 18.309375,93.00375 C18.309375,83.03 26.394375,74.945 36.368125,74.945 L63.68625,74.945 L63.68625,111.0625 Z" id="Path" fill="#FFB09E"></path>
                        <path d="M115.44875,74.945 L142.766875,74.945 C152.740625,74.945 160.825625,83.03 160.825625,93.00375 C160.825625,102.9775 152.740625,111.0625 142.766875,111.0625 L115.44875,111.0625 L115.44875,74.945 Z" id="Path" fill="#FFA78F"></path>
                        <path d="M89.631875,30.630625 C60.296875,30.630625 36.51625,54.1175 36.51625,83.090625 L36.51625,86.636875 L36.51625,102.95 C36.51625,131.923125 60.296875,155.41 89.631875,155.41 C118.966875,155.41 142.7475,131.923125 142.7475,102.95 L142.7475,83.090625 C142.7475,54.1175 118.966875,30.630625 89.631875,30.630625 Z" id="Path" fill="#FFCEBF"></path>
                        <path d="M89.631875,30.630625 C86.834375,30.630625 84.088125,30.8475 81.4075,31.25875 C106.836875,35.163125 126.29875,56.880625 126.29875,83.090625 L126.29875,102.95 C126.29875,129.16 106.83625,150.8775 81.4075,154.781875 C84.088125,155.193125 86.834375,155.41 89.631875,155.41 C118.966875,155.41 142.7475,131.923125 142.7475,102.95 L142.7475,83.090625 C142.7475,54.1175 118.966875,30.630625 89.631875,30.630625 L89.631875,30.630625 Z" id="Path" fill="#FFB09E"></path>
                        <path d="M59.874375,122.44625 L49.76375,122.44625 C46.73625,122.44625 44.281875,119.9925 44.281875,116.964375 C44.281875,113.93625 46.735625,111.4825 49.76375,111.4825 L59.874375,111.4825 C62.901875,111.4825 65.35625,113.93625 65.35625,116.964375 C65.35625,119.9925 62.901875,122.44625 59.874375,122.44625 Z" id="Path" fill="#FE8F83"></path>
                        <path d="M129.703125,122.44625 L119.5925,122.44625 C116.564375,122.44625 114.110625,119.9925 114.110625,116.964375 C114.110625,113.93625 116.564375,111.4825 119.5925,111.4825 L129.703125,111.4825 C132.730625,111.4825 135.185,113.93625 135.185,116.964375 C135.185,119.9925 132.730625,122.44625 129.703125,122.44625 Z" id="Path" fill="#FE8F83"></path>
                        <path d="M95.19875,0 C92.08875,0 89.568125,2.520625 89.5675,5.630625 C89.5675,2.520625 87.04625,0 83.93625,0 C50.375625,0 23.17,27.20625 23.17,60.76625 L23.17,74.944375 L58.62875,74.944375 C75.715625,74.944375 89.566875,61.093125 89.5675,44.006875 C89.568125,61.093125 103.419375,74.944375 120.50625,74.944375 L155.965625,74.944375 L155.965625,60.76625 C155.965625,27.20625 128.759375,0 95.19875,0 Z" id="Path" fill="#5A5A5A"></path>
                        <path d="M95.19875,0.000625 C93.585625,0.000625 92.134375,0.6825 91.108125,1.769375 C117.63375,8.295 137.3125,32.2275 137.3125,60.766875 L137.3125,74.945 L155.965625,74.945 L155.965625,60.766875 C155.965625,27.20625 128.759375,0.000625 95.19875,0.000625 Z" id="Path" fill="#444444"></path>
                        <path d="M89.733125,135.928125 C80.76375,135.928125 73.465625,128.63 73.465625,119.660625 C73.465625,116.655625 75.90125,114.220625 78.905625,114.220625 C81.91,114.220625 84.345625,116.655625 84.345625,119.660625 C84.345625,122.63125 86.7625,125.048125 89.733125,125.048125 C92.70375,125.048125 95.120625,122.63125 95.120625,119.660625 C95.120625,116.655625 97.55625,114.220625 100.560625,114.220625 C103.565,114.220625 106.000625,116.655625 106.000625,119.660625 C106.000625,128.630625 98.703125,135.928125 89.733125,135.928125 Z" id="Path" fill="#FFA799"></path>
                        <path d="M114.61875,109.305625 C111.614375,109.305625 109.17875,106.870625 109.17875,103.865625 L109.17875,94.195 C109.17875,91.19 111.614375,88.755 114.61875,88.755 L118.77625,88.755 C121.780625,88.755 124.21625,91.19 124.21625,94.195 C124.21625,96.7575 122.444375,98.90625 120.05875,99.4825 L120.05875,103.865625 C120.05875,106.870625 117.623125,109.305625 114.61875,109.305625 Z" id="Path" fill="#5A5A5A"></path>
                        <path d="M64.848125,109.305625 C61.84375,109.305625 59.408125,106.870625 59.408125,103.865625 L59.408125,99.4825 C57.0225,98.905625 55.250625,96.7575 55.250625,94.195 C55.250625,91.19 57.68625,88.755 60.690625,88.755 L64.848125,88.755 C67.8525,88.755 70.288125,91.19 70.288125,94.195 L70.288125,103.865625 C70.288125,106.870625 67.8525,109.305625 64.848125,109.305625 Z" id="Path" fill="#5A5A5A"></path>
                    </g>
                </g>
            </g>
        </g>
    </g>
</svg>